PathFileType	4	(X/Y/Z)	../Python\running\Running03\task.trc
DataRate	CameraRate	NumFrames	NumMarkers	Units	OrigDataRate	OrigDataStartFrame	OrigNumFrames
200.000000	200.000000	4	30	mm	200.000000	173	198
Frame#	Time	C7			RBAK			CLAV			STRN			RASI			RPSI			LASI			PE01			RTH2			RTH3			RD5M			RTOE			LTH2			LTH3			LTB2			LTB3			LHEE			LTOE			LD5M			RHEE			RTH1			RTB2			LPSI			T10			RTB1			PE03			RTB3			PE02			LTH1			LTB1			
		X1	Y1	Z1	X2	Y2	Z2	X3	Y3	Z3	X4	Y4	Z4	X5	Y5	Z5	X6	Y6	Z6	X7	Y7	Z7	X8	Y8	Z8	X9	Y9	Z9	X10	Y10	Z10	X11	Y11	Z11	X12	Y12	Z12	X13	Y13	Z13	X14	Y14	Z14	X15	Y15	Z15	X16	Y16	Z16	X17	Y17	Z17	X18	Y18	Z18	X19	Y19	Z19	X20	Y20	Z20	X21	Y21	Z21	X22	Y22	Z22	X23	Y23	Z23	X24	Y24	Z24	X25	Y25	Z25	X26	Y26	Z26	X27	Y27	Z27	X28	Y28	Z28	X29	Y29	Z29	X30	Y30	Z30	

174	0.865	1554.625244140626	1298.76611328125	135.6177520751954	1514.621826171875	1228.19873046875	266.6271057128907	1668.774902343751	1184.929809570313	137.4396972656251	1692.258544921876	988.8482055664067	161.9035797119141	1629.081054687501	798.4212036132817	288.6649780273439	1442.033203125	872.7024536132817	253.696746826172	1623.861328125001	823.0217895507817	62.79492187500003	1448.966674804688	911.0314331054692	215.8825225830079	1630.944458007813	443.1765747070315	323.2524414062501	1646.889404296876	502.5277099609377	331.5366516113282	1275.796020507813	181.7039337158204	280.3550415039064	1303.638061523438	149.7100372314454	239.0229492187501	1589.059570312501	505.8819580078127	41.23076629638673	1654.370971679688	552.201599121094	30.66569328308107	1505.168212890625	194.9443359375001	72.18484497070315	1553.266357421876	205.1546936035157	81.54646301269534	1384.710693359375	47.67666625976564	134.5785675048829	1567.418457031251	35.54267883300783	153.2725372314454	1537.111206054688	18.8252296447754	93.82752990722659	1231.707153320313	305.7342224121095	185.9781188964844	1598.091552734376	514.9083251953127	335.0779113769532	1457.838134765625	337.2402343750001	294.5609130859376	1433.10009765625	883.7432250976567	166.4675445556641	1475.025756835938	1016.576782226563	196.0139007568361	1513.187744140625	310.5345764160157	291.0433349609376	1418.972534179688	861.9695434570317	179.0681915283204	1436.538452148438	295.4465332031251	275.7929687500001	1422.453491210938	850.3041992187505	228.4802398681642	1605.531127929688	563.2781982421877	24.74498176574708	1545.947631835938	261.7342224121095	57.14186096191409	
175	0.87	1571.451904296876	1299.217651367188	136.2223052978516	1529.656616210938	1228.39453125	265.8682861328126	1685.651611328126	1185.312622070313	139.4915771484376	1708.594726562501	989.1292114257817	163.3753204345704	1645.317016601563	798.9404296875005	288.6651000976564	1458.165771484375	873.6178588867192	252.9290466308595	1639.401733398438	821.8273925781255	62.62352371215823	1465.257690429688	911.8325195312505	215.1248779296876	1657.019775390626	446.167175292969	323.0788879394532	1671.286987304688	505.9875183105471	331.7543945312501	1310.02978515625	174.1955871582032	284.0294799804689	1338.578369140625	143.2489471435547	242.3712310791017	1597.286865234376	504.7498779296877	40.80790328979494	1663.608520507813	549.4517211914065	30.65200042724611	1506.996337890625	194.8217773437501	72.30840301513675	1555.313232421876	204.1676788330079	81.48872375488284	1384.619995117188	49.54430007934573	135.1063079833985	1567.158691406251	35.44191741943361	153.3288269042969	1536.443115234376	18.93878555297852	94.04167175292972	1260.154907226563	296.3999938964845	189.9617767333985	1622.059204101563	516.8881835937502	335.2873840332032	1486.85595703125	334.907928466797	296.1477661132814	1449.205322265625	884.2887573242192	165.8721008300782	1491.483764648438	1016.812561035157	195.2649688720704	1542.959350585938	309.989715576172	291.7584838867189	1435.03515625	862.7059936523442	178.3773040771485	1466.646606445313	292.7269287109376	277.4359436035157	1438.380615234375	851.2568969726567	227.7969360351564	1615.112426757813	561.8689575195315	24.54297828674318	1548.793334960938	260.8391418457032	57.08717346191409	
176	0.875	1588.225708007813	1299.94775390625	136.8799285888672	1544.645019531251	1228.857299804688	265.0337524414064	1702.504760742188	1186.1259765625	141.6157684326172	1724.997802734376	989.8794555664067	164.8359680175782	1661.653076171876	799.866577148438	288.7674560546876	1474.28466796875	874.7225952148442	251.9651641845704	1655.083618164063	820.7255249023442	62.49210357666018	1481.597412109375	912.8369140625005	214.1760253906251	1682.854492187501	449.7998962402346	322.7509765625001	1695.471191406251	510.007995605469	331.8594970703126	1344.702758789063	166.6569061279297	287.707489013672	1373.986694335938	136.7644653320313	245.806365966797	1605.238891601563	503.9487609863284	40.49031448364259	1672.550903320313	546.9023437500002	30.70951461791994	1508.799926757813	194.9953002929689	72.52825164794925	1557.273559570313	203.5488739013673	81.51619720458987	1384.597900390625	51.73849868774417	135.6795806884766	1566.929443359376	35.33939743041994	153.4041442871094	1535.71826171875	19.09148979187012	94.33155822753909	1288.989013671875	286.5614013671876	193.7998504638673	1645.887573242188	519.4461669921877	335.4221801757814	1515.781372070313	332.8040161132814	297.6107177734376	1465.431396484375	885.0025024414067	165.1207580566407	1508.019897460938	1017.304016113282	194.4105682373048	1572.630981445313	309.8543090820314	292.4340209960939	1451.213500976563	863.597534179688	177.5252685546876	1496.798095703125	290.1963195800782	279.0249328613282	1454.3427734375	852.446411132813	226.9653930664064	1624.483764648438	560.7458496093752	24.43649291992189	1551.529174804688	260.2779235839845	57.11995315551761	
177	0.88	1604.949096679688	1300.94580078125	137.5841674804688	1559.591430664063	1229.578247070313	264.1196594238282	1719.338134765626	1187.353393554688	143.8090209960938	1741.478393554688	991.0751953125005	166.2862701416016	1678.101684570313	801.1814575195317	288.9515075683595	1490.398803710938	876.0298461914067	250.8531036376954	1670.922241210938	819.7581176757817	62.39191818237308	1498.010986328125	914.040405273438	213.060516357422	1708.401000976563	454.0334472656252	322.2550659179689	1719.386718750001	514.549499511719	331.8324279785157	1379.822265625	159.1500854492188	291.3712158203126	1409.856811523438	130.3245239257813	249.2982177734376	1612.973388671876	503.5162353515627	40.28554916381837	1681.247314453126	544.6140747070315	30.82099533081056	1510.627319335938	195.4979095458986	72.83719635009768	1559.202392578126	203.3326721191407	81.62410736083987	1384.679931640625	54.29867935180667	136.2620544433594	1566.748779296876	35.23372268676759	153.4944458007813	1534.965698242188	19.26979446411134	94.68941497802737	1318.246704101563	276.2880249023439	197.4983215332032	1669.523193359376	522.539245605469	335.4697570800782	1544.599731445313	330.9197387695314	298.9563598632814	1481.782958984375	885.8872070312505	164.245346069336	1524.640502929688	1018.042785644532	193.4467010498048	1602.175537109376	310.108367919922	293.0743713378907	1467.51708984375	864.635864257813	176.5613403320313	1526.977905273438	287.8544006347657	280.5616455078126	1470.369262695313	853.876586914063	226.038543701172	1633.690795898438	559.940124511719	24.42358398437501	1554.208618164063	260.0892944335939	57.23652648925784	
